# 3ds Max Wavefront OBJ Exporter v0.97b - (c)2007 guruware
# File Created: 22.10.2012 00:11:23

mtllib webbot_head.mtl

#
# object I_Head_polySurface48
#

v  1.7246 5.4840 0.7795
v  1.7534 6.1057 0.7910
v  0.6707 6.0983 0.7986
v  0.6609 5.4576 0.7856
v  1.7534 6.8374 0.7910
v  0.6707 6.8446 0.7986
v  -0.5827 6.0983 0.7986
v  -0.5729 5.4576 0.7856
v  1.7246 7.4591 0.7795
v  0.6609 7.4853 0.7856
v  -0.5827 6.8446 0.7986
v  -0.5729 7.4853 0.7856
v  1.6527 8.0666 0.5423
v  0.6365 8.1289 0.5435
v  0.6462 7.9141 0.7244
v  1.6815 7.8656 0.7206
v  1.6527 8.0666 0.2861
v  0.6365 8.1289 0.2849
v  -0.5485 8.1289 0.5435
v  -0.5485 8.1289 0.2849
v  -0.5583 7.9141 0.7244
v  0.6707 6.0983 0.0298
v  1.7534 6.1057 0.0374
v  1.7246 5.4840 0.0489
v  0.6609 5.4576 0.0427
v  -0.5729 5.4576 0.0427
v  -0.5827 6.0983 0.0298
v  1.7246 7.4591 0.0489
v  1.7534 6.8374 0.0374
v  0.6707 6.8446 0.0298
v  0.6609 7.4853 0.0427
v  -0.5827 6.8446 0.0298
v  -0.5729 7.4853 0.0427
v  0.6365 4.8141 0.2849
v  1.6527 4.8764 0.2861
v  1.6527 4.8764 0.5423
v  0.6365 4.8141 0.5435
v  -0.5485 4.8141 0.2849
v  -0.5485 4.8141 0.5435
v  2.8047 5.5496 0.5464
v  2.8047 5.5496 0.2820
v  2.8585 6.1238 0.2787
v  2.8585 6.1238 0.5496
v  2.8585 6.8191 0.5496
v  2.8585 6.8191 0.2787
v  2.8047 7.3934 0.2820
v  2.8047 7.3934 0.5464
v  -2.3996 6.1166 0.7351
v  -2.7705 6.1238 0.5496
v  -2.7167 5.5496 0.5464
v  -2.3549 5.5234 0.7268
v  -2.3996 6.8264 0.7351
v  -2.7705 6.8191 0.5496
v  -2.3549 7.4197 0.7268
v  -2.7167 7.3934 0.5464
v  -2.7167 7.3934 0.2820
v  -2.7705 6.8191 0.2787
v  -2.7705 6.1238 0.2787
v  -2.7167 5.5496 0.2820
v  -1.6654 6.1057 0.7910
v  -1.6367 5.4840 0.7795
v  -1.6367 7.4591 0.7795
v  -1.6654 6.8374 0.7910
v  -1.5648 4.8764 0.5423
v  -1.5648 4.8764 0.2861
v  -2.2224 5.0004 0.3032
v  -2.2224 5.0004 0.5251
v  -1.6367 5.4840 0.0489
v  -1.6654 6.1057 0.0374
v  -1.6654 6.8374 0.0374
v  -2.3996 6.1166 0.0932
v  -2.3549 5.5234 0.1016
v  -2.3996 6.8264 0.0932
v  -2.3549 7.4197 0.1016
v  -1.6367 7.4591 0.0489
v  -1.5648 8.0666 0.5423
v  -1.5935 7.8656 0.7206
v  -2.2224 7.9427 0.5251
v  -2.2601 7.7830 0.6782
v  -1.5648 8.0666 0.2861
v  -2.2224 7.9427 0.3032
v  -2.5664 7.7427 0.5263
v  -2.5664 7.7427 0.3020
v  -2.2601 7.7830 0.1501
v  -1.5935 7.8656 0.1077
v  -0.5583 7.9141 0.1040
v  0.6462 7.9141 0.1040
v  1.6815 7.8656 0.1077
v  2.6544 7.7427 0.3020
v  2.6544 7.7427 0.5263
v  1.6815 5.0774 0.7206
v  0.6462 5.0289 0.7244
v  -0.5583 5.0289 0.7244
v  2.6544 5.2003 0.5263
v  2.6544 5.2003 0.3020
v  1.6815 5.0774 0.1077
v  0.6462 5.0289 0.1040
v  -0.5583 5.0289 0.1040
v  -2.5664 5.2003 0.3020
v  -2.2601 5.1600 0.1501
v  -1.5935 5.0774 0.1077
v  -2.2601 5.1600 0.6782
v  -2.5664 5.2003 0.5263
v  -1.5935 5.0774 0.7206
v  2.3103 7.9427 0.5251
v  2.3480 7.7830 0.6782
v  2.3103 7.9427 0.3032
v  2.4429 7.4197 0.1016
v  2.3480 7.7830 0.1501
v  2.4876 6.1166 0.0932
v  2.4429 5.5234 0.1016
v  2.4876 6.8264 0.0932
v  2.3103 5.0004 0.3032
v  2.3480 5.1600 0.1501
v  2.3103 5.0004 0.5251
v  2.3480 5.1600 0.6782
v  2.4429 5.5234 0.7268
v  2.4876 6.1166 0.7351
v  2.4876 6.8264 0.7351
v  2.4429 7.4197 0.7268
# 120 vertices

vn 0.0433 -0.0841 0.9955
vn 0.0412 -0.0101 0.9991
vn 0.0034 -0.0099 0.9999
vn 0.0041 -0.0812 0.9967
vn 0.0412 0.0101 0.9991
vn 0.0034 0.0099 0.9999
vn -0.0034 -0.0099 0.9999
vn -0.0041 -0.0812 0.9967
vn 0.0433 0.0841 0.9955
vn 0.0041 0.0812 0.9967
vn -0.0034 0.0099 0.9999
vn -0.0041 0.0812 0.9967
vn 0.1156 0.9082 0.4023
vn 0.0271 0.9079 0.4183
vn 0.0122 0.4124 0.9109
vn 0.0699 0.4276 0.9013
vn 0.1156 0.9082 -0.4023
vn 0.0271 0.9079 -0.4183
vn -0.0271 0.9079 0.4183
vn -0.0271 0.9079 -0.4183
vn -0.0122 0.4124 0.9109
vn 0.0034 -0.0099 -0.9999
vn 0.0412 -0.0101 -0.9991
vn 0.0433 -0.0841 -0.9955
vn 0.0041 -0.0812 -0.9967
vn -0.0041 -0.0812 -0.9967
vn -0.0034 -0.0099 -0.9999
vn 0.0433 0.0841 -0.9955
vn 0.0412 0.0101 -0.9991
vn 0.0034 0.0099 -0.9999
vn 0.0041 0.0812 -0.9967
vn -0.0034 0.0099 -0.9999
vn -0.0041 0.0812 -0.9967
vn 0.0271 -0.9079 -0.4183
vn 0.1156 -0.9082 -0.4023
vn 0.1156 -0.9082 0.4023
vn 0.0271 -0.9079 0.4183
vn -0.0271 -0.9079 -0.4183
vn -0.0271 -0.9079 0.4183
vn 0.8266 -0.2272 0.5150
vn 0.8266 -0.2272 -0.5150
vn 0.8499 -0.0411 -0.5253
vn 0.8499 -0.0411 0.5253
vn 0.8499 0.0411 0.5253
vn 0.8499 0.0411 -0.5253
vn 0.8266 0.2272 -0.5150
vn 0.8266 0.2272 0.5150
vn -0.2667 -0.0172 0.9636
vn -0.8499 -0.0411 0.5253
vn -0.8266 -0.2272 0.5150
vn -0.2701 -0.1171 0.9557
vn -0.2667 0.0172 0.9636
vn -0.8499 0.0411 0.5253
vn -0.2701 0.1171 0.9557
vn -0.8266 0.2272 0.5150
vn -0.8266 0.2272 -0.5150
vn -0.8499 0.0411 -0.5253
vn -0.8499 -0.0411 -0.5253
vn -0.8266 -0.2272 -0.5150
vn -0.0412 -0.0101 0.9991
vn -0.0433 -0.0841 0.9955
vn -0.0433 0.0841 0.9955
vn -0.0412 0.0101 0.9991
vn -0.1156 -0.9082 0.4022
vn -0.1156 -0.9082 -0.4022
vn -0.3312 -0.8717 -0.3610
vn -0.3312 -0.8717 0.3610
vn -0.0433 -0.0841 -0.9955
vn -0.0412 -0.0101 -0.9991
vn -0.0412 0.0101 -0.9991
vn -0.2667 -0.0172 -0.9636
vn -0.2701 -0.1171 -0.9557
vn -0.2667 0.0172 -0.9636
vn -0.2701 0.1171 -0.9557
vn -0.0433 0.0841 -0.9955
vn -0.1156 0.9082 0.4023
vn -0.0699 0.4276 0.9013
vn -0.3312 0.8717 0.3610
vn -0.2818 0.4644 0.8396
vn -0.1156 0.9082 -0.4023
vn -0.3312 0.8717 -0.3610
vn -0.6524 0.6278 0.4246
vn -0.6524 0.6278 -0.4246
vn -0.2818 0.4644 -0.8396
vn -0.0699 0.4276 -0.9013
vn -0.0122 0.4124 -0.9109
vn 0.0122 0.4124 -0.9109
vn 0.0699 0.4276 -0.9013
vn 0.6524 0.6278 -0.4246
vn 0.6524 0.6278 0.4246
vn 0.0699 -0.4276 0.9013
vn 0.0122 -0.4124 0.9109
vn -0.0122 -0.4124 0.9109
vn 0.6524 -0.6278 0.4246
vn 0.6524 -0.6278 -0.4246
vn 0.0699 -0.4276 -0.9013
vn 0.0122 -0.4124 -0.9109
vn -0.0122 -0.4124 -0.9109
vn -0.6524 -0.6278 -0.4246
vn -0.2818 -0.4644 -0.8396
vn -0.0699 -0.4276 -0.9013
vn -0.2818 -0.4644 0.8396
vn -0.6524 -0.6278 0.4246
vn -0.0699 -0.4276 0.9013
vn 0.3312 0.8717 0.3610
vn 0.2818 0.4644 0.8396
vn 0.3312 0.8717 -0.3610
vn 0.2701 0.1171 -0.9557
vn 0.2818 0.4644 -0.8396
vn 0.2667 -0.0172 -0.9636
vn 0.2701 -0.1171 -0.9557
vn 0.2667 0.0172 -0.9636
vn 0.3312 -0.8717 -0.3610
vn 0.2818 -0.4644 -0.8396
vn 0.3312 -0.8717 0.3610
vn 0.2818 -0.4644 0.8396
vn 0.2701 -0.1171 0.9557
vn 0.2667 -0.0172 0.9636
vn 0.2667 0.0172 0.9636
vn 0.2701 0.1171 0.9557
# 120 vertex normals

vt 0.8836 0.8145 0.0000
vt 0.8836 0.8469 0.0000
vt 0.8256 0.8469 0.0000
vt 0.8252 0.8145 0.0000
vt 0.8836 0.8864 0.0000
vt 0.8256 0.8864 0.0000
vt 0.7571 0.8469 0.0000
vt 0.7571 0.8145 0.0000
vt 0.8836 0.9215 0.0000
vt 0.8252 0.9215 0.0000
vt 0.7571 0.8864 0.0000
vt 0.7571 0.9215 0.0000
vt 0.8861 0.9661 0.0000
vt 0.8285 0.9697 0.0000
vt 0.8267 0.9481 0.0000
vt 0.8836 0.9481 0.0000
vt 0.8890 0.9843 0.0000
vt 0.8285 0.9884 0.0000
vt 0.7552 0.9697 0.0000
vt 0.7552 0.9884 0.0000
vt 0.7571 0.9481 0.0000
vt 0.8526 0.6399 0.0000
vt 0.9115 0.6395 0.0000
vt 0.9099 0.6733 0.0000
vt 0.8521 0.6747 0.0000
vt 0.7851 0.6747 0.0000
vt 0.7845 0.6399 0.0000
vt 0.9099 0.5659 0.0000
vt 0.9115 0.5997 0.0000
vt 0.8526 0.5993 0.0000
vt 0.8521 0.5645 0.0000
vt 0.7845 0.5993 0.0000
vt 0.7851 0.5645 0.0000
vt 0.8285 0.7438 0.0000
vt 0.8890 0.7480 0.0000
vt 0.8861 0.7662 0.0000
vt 0.8285 0.7626 0.0000
vt 0.7553 0.7438 0.0000
vt 0.7552 0.7626 0.0000
vt 0.9526 0.8152 0.0000
vt 0.9744 0.8122 0.0000
vt 0.9766 0.8447 0.0000
vt 0.9545 0.8470 0.0000
vt 0.9545 0.8852 0.0000
vt 0.9767 0.8875 0.0000
vt 0.9745 0.9200 0.0000
vt 0.9526 0.9171 0.0000
vt 0.6612 0.8469 0.0000
vt 0.6293 0.8470 0.0000
vt 0.6312 0.8151 0.0000
vt 0.6612 0.8145 0.0000
vt 0.6612 0.8864 0.0000
vt 0.6293 0.8852 0.0000
vt 0.6612 0.9215 0.0000
vt 0.6311 0.9171 0.0000
vt 0.6092 0.9200 0.0000
vt 0.6071 0.8875 0.0000
vt 0.6071 0.8447 0.0000
vt 0.6093 0.8122 0.0000
vt 0.7002 0.8469 0.0000
vt 0.7002 0.8145 0.0000
vt 0.7002 0.9215 0.0000
vt 0.7002 0.8864 0.0000
vt 0.6977 0.7662 0.0000
vt 0.6948 0.7479 0.0000
vt 0.6577 0.7551 0.0000
vt 0.6601 0.7733 0.0000
vt 0.7273 0.6733 0.0000
vt 0.7257 0.6395 0.0000
vt 0.7257 0.5997 0.0000
vt 0.6629 0.6727 0.0000
vt 0.6598 0.6417 0.0000
vt 0.6804 0.6404 0.0000
vt 0.6829 0.6724 0.0000
vt 0.6804 0.5987 0.0000
vt 0.6598 0.5975 0.0000
vt 0.6629 0.5665 0.0000
vt 0.6829 0.5667 0.0000
vt 0.7273 0.5659 0.0000
vt 0.6977 0.9660 0.0000
vt 0.7002 0.9481 0.0000
vt 0.6601 0.9589 0.0000
vt 0.6612 0.9481 0.0000
vt 0.6948 0.9843 0.0000
vt 0.6577 0.9771 0.0000
vt 0.6332 0.9387 0.0000
vt 0.6133 0.9405 0.0000
vt 0.6878 0.5460 0.0000
vt 0.7277 0.5406 0.0000
vt 0.6689 0.5488 0.0000
vt 0.6903 0.5364 0.0000
vt 0.7270 0.5292 0.0000
vt 0.7819 0.5256 0.0000
vt 0.7837 0.5378 0.0000
vt 0.8535 0.5378 0.0000
vt 0.8552 0.5256 0.0000
vt 0.9102 0.5292 0.0000
vt 0.9095 0.5406 0.0000
vt 0.9704 0.9404 0.0000
vt 0.9506 0.9387 0.0000
vt 0.8836 0.7841 0.0000
vt 0.8267 0.7841 0.0000
vt 0.7571 0.7841 0.0000
vt 0.9505 0.7935 0.0000
vt 0.9703 0.7917 0.0000
vt 0.9095 0.6986 0.0000
vt 0.8535 0.7014 0.0000
vt 0.7837 0.7014 0.0000
vt 0.9102 0.7100 0.0000
vt 0.8552 0.7135 0.0000
vt 0.7819 0.7135 0.0000
vt 0.6903 0.7028 0.0000
vt 0.6689 0.6904 0.0000
vt 0.6878 0.6932 0.0000
vt 0.7277 0.6986 0.0000
vt 0.7270 0.7100 0.0000
vt 0.6612 0.7841 0.0000
vt 0.6332 0.7934 0.0000
vt 0.6134 0.7917 0.0000
vt 0.7002 0.7841 0.0000
vt 0.9236 0.9589 0.0000
vt 0.9251 0.9481 0.0000
vt 0.9261 0.9772 0.0000
vt 0.9682 0.5488 0.0000
vt 0.9743 0.5665 0.0000
vt 0.9543 0.5667 0.0000
vt 0.9494 0.5460 0.0000
vt 0.9469 0.5364 0.0000
vt 0.9568 0.6404 0.0000
vt 0.9773 0.6417 0.0000
vt 0.9743 0.6727 0.0000
vt 0.9543 0.6724 0.0000
vt 0.9568 0.5987 0.0000
vt 0.9773 0.5975 0.0000
vt 0.9682 0.6904 0.0000
vt 0.9469 0.7028 0.0000
vt 0.9494 0.6932 0.0000
vt 0.9236 0.7733 0.0000
vt 0.9261 0.7551 0.0000
vt 0.9251 0.7841 0.0000
vt 0.9251 0.8145 0.0000
vt 0.9251 0.8469 0.0000
vt 0.9251 0.8864 0.0000
vt 0.9251 0.9215 0.0000
# 144 texture coords

g I_Head_polySurface48
usemtl default
s 1
f 1/1/1 2/2/2 3/3/3 
f 3/3/3 4/4/4 1/1/1 
f 2/2/2 5/5/5 6/6/6 
f 6/6/6 3/3/3 2/2/2 
f 7/7/7 8/8/8 4/4/4 
f 4/4/4 3/3/3 7/7/7 
f 6/6/6 5/5/5 9/9/9 
f 9/9/9 10/10/10 6/6/6 
f 6/6/6 11/11/11 7/7/7 
f 7/7/7 3/3/3 6/6/6 
f 6/6/6 10/10/10 12/12/12 
f 12/12/12 11/11/11 6/6/6 
f 13/13/13 14/14/14 15/15/15 
f 15/15/15 16/16/16 13/13/13 
f 14/14/14 13/13/13 17/17/17 
f 17/17/17 18/18/18 14/14/14 
f 19/19/19 14/14/14 18/18/18 
f 18/18/18 20/20/20 19/19/19 
f 19/19/19 21/21/21 15/15/15 
f 15/15/15 14/14/14 19/19/19 
f 22/22/22 23/23/23 24/24/24 
f 24/24/24 25/25/25 22/22/22 
f 22/22/22 25/25/25 26/26/26 
f 26/26/26 27/27/27 22/22/22 
f 28/28/28 29/29/29 30/30/30 
f 30/30/30 31/31/31 28/28/28 
f 30/30/30 29/29/29 23/23/23 
f 23/23/23 22/22/22 30/30/30 
f 32/32/32 30/30/30 22/22/22 
f 22/22/22 27/27/27 32/32/32 
f 32/32/32 33/33/33 31/31/31 
f 31/31/31 30/30/30 32/32/32 
f 34/34/34 35/35/35 36/36/36 
f 36/36/36 37/37/37 34/34/34 
f 38/38/38 34/34/34 37/37/37 
f 37/37/37 39/39/39 38/38/38 
f 40/40/40 41/41/41 42/42/42 
f 42/42/42 43/43/43 40/40/40 
f 44/44/44 43/43/43 42/42/42 
f 42/42/42 45/45/45 44/44/44 
f 46/46/46 47/47/47 44/44/44 
f 44/44/44 45/45/45 46/46/46 
f 48/48/48 49/49/49 50/50/50 
f 50/50/50 51/51/51 48/48/48 
f 48/48/48 52/52/52 53/53/53 
f 53/53/53 49/49/49 48/48/48 
f 52/52/52 54/54/54 55/55/55 
f 55/55/55 53/53/53 52/52/52 
f 55/55/55 56/56/56 57/57/57 
f 57/57/57 53/53/53 55/55/55 
f 58/58/58 59/59/59 50/50/50 
f 50/50/50 49/49/49 58/58/58 
f 57/57/57 58/58/58 49/49/49 
f 49/49/49 53/53/53 57/57/57 
f 7/7/7 60/60/60 61/61/61 
f 61/61/61 8/8/8 7/7/7 
f 60/60/60 48/48/48 51/51/51 
f 51/51/51 61/61/61 60/60/60 
f 11/11/11 12/12/12 62/62/62 
f 62/62/62 63/63/63 11/11/11 
f 11/11/11 63/63/63 60/60/60 
f 60/60/60 7/7/7 11/11/11 
f 63/63/63 52/52/52 48/48/48 
f 48/48/48 60/60/60 63/63/63 
f 63/63/63 62/62/62 54/54/54 
f 54/54/54 52/52/52 63/63/63 
f 64/64/64 65/65/65 38/38/38 
f 38/38/38 39/39/39 64/64/64 
f 66/66/66 65/65/65 64/64/64 
f 64/64/64 67/67/67 66/66/66 
f 27/27/27 26/26/26 68/68/68 
f 68/68/68 69/69/69 27/27/27 
f 69/69/69 70/70/70 32/32/32 
f 32/32/32 27/27/27 69/69/69 
f 59/71/59 58/72/58 71/73/71 
f 71/73/71 72/74/72 59/71/59 
f 69/69/69 68/68/68 72/74/72 
f 72/74/72 71/73/71 69/69/69 
f 73/75/73 57/76/57 56/77/56 
f 56/77/56 74/78/74 73/75/73 
f 57/76/57 73/75/73 71/73/71 
f 71/73/71 58/72/58 57/76/57 
f 32/32/32 70/70/70 75/79/75 
f 75/79/75 33/33/33 32/32/32 
f 73/75/73 70/70/70 69/69/69 
f 69/69/69 71/73/71 73/75/73 
f 70/70/70 73/75/73 74/78/74 
f 74/78/74 75/79/75 70/70/70 
f 76/80/76 77/81/77 21/21/21 
f 21/21/21 19/19/19 76/80/76 
f 78/82/78 79/83/79 77/81/77 
f 77/81/77 76/80/76 78/82/78 
f 80/84/80 76/80/76 19/19/19 
f 19/19/19 20/20/20 80/84/80 
f 80/84/80 81/85/81 78/82/78 
f 78/82/78 76/80/76 80/84/80 
f 78/82/78 82/86/82 79/83/79 
f 55/55/55 82/86/82 83/87/83 
f 83/87/83 56/56/56 55/55/55 
f 81/85/81 83/87/83 82/86/82 
f 82/86/82 78/82/78 81/85/81 
f 82/86/82 55/55/55 54/54/54 
f 54/54/54 79/83/79 82/86/82 
f 75/79/75 74/78/74 84/88/84 
f 84/88/84 85/89/85 75/79/75 
f 83/90/83 81/91/81 84/88/84 
f 83/90/83 84/88/84 74/78/74 
f 74/78/74 56/77/56 83/90/83 
f 80/92/80 20/93/20 86/94/86 
f 86/94/86 85/89/85 80/92/80 
f 85/89/85 86/94/86 33/33/33 
f 33/33/33 75/79/75 85/89/85 
f 81/91/81 80/92/80 85/89/85 
f 85/89/85 84/88/84 81/91/81 
f 87/95/87 18/96/18 17/97/17 
f 17/97/17 88/98/88 87/95/87 
f 31/31/31 87/95/87 88/98/88 
f 88/98/88 28/28/28 31/31/31 
f 86/94/86 87/95/87 31/31/31 
f 31/31/31 33/33/33 86/94/86 
f 18/96/18 87/95/87 86/94/86 
f 86/94/86 20/93/20 18/96/18 
f 46/46/46 89/99/89 90/100/90 
f 90/100/90 47/47/47 46/46/46 
f 10/10/10 9/9/9 16/16/16 
f 16/16/16 15/15/15 10/10/10 
f 12/12/12 10/10/10 15/15/15 
f 15/15/15 21/21/21 12/12/12 
f 77/81/77 62/62/62 12/12/12 
f 12/12/12 21/21/21 77/81/77 
f 62/62/62 77/81/77 79/83/79 
f 79/83/79 54/54/54 62/62/62 
f 36/36/36 91/101/91 92/102/92 
f 92/102/92 37/37/37 36/36/36 
f 4/4/4 92/102/92 91/101/91 
f 91/101/91 1/1/1 4/4/4 
f 93/103/93 92/102/92 4/4/4 
f 4/4/4 8/8/8 93/103/93 
f 92/102/92 93/103/93 39/39/39 
f 39/39/39 37/37/37 92/102/92 
f 40/40/40 94/104/94 95/105/95 
f 95/105/95 41/41/41 40/40/40 
f 25/25/25 24/24/24 96/106/96 
f 96/106/96 97/107/97 25/25/25 
f 26/26/26 25/25/25 97/107/97 
f 97/107/97 98/108/98 26/26/26 
f 97/107/97 96/106/96 35/109/35 
f 35/109/35 34/110/34 97/107/97 
f 38/111/38 98/108/98 97/107/97 
f 97/107/97 34/110/34 38/111/38 
f 66/112/66 99/113/99 100/114/100 
f 68/68/68 101/115/101 100/114/100 
f 100/114/100 72/74/72 68/68/68 
f 66/112/66 100/114/100 101/115/101 
f 101/115/101 65/116/65 66/112/66 
f 72/74/72 100/114/100 99/113/99 
f 99/113/99 59/71/59 72/74/72 
f 65/116/65 101/115/101 98/108/98 
f 98/108/98 38/111/38 65/116/65 
f 101/115/101 68/68/68 26/26/26 
f 26/26/26 98/108/98 101/115/101 
f 67/67/67 102/117/102 103/118/103 
f 103/118/103 102/117/102 51/51/51 
f 51/51/51 50/50/50 103/118/103 
f 103/118/103 99/119/99 66/66/66 
f 66/66/66 67/67/67 103/118/103 
f 59/59/59 99/119/99 103/118/103 
f 103/118/103 50/50/50 59/59/59 
f 61/61/61 51/51/51 102/117/102 
f 102/117/102 104/120/104 61/61/61 
f 93/103/93 104/120/104 64/64/64 
f 64/64/64 39/39/39 93/103/93 
f 104/120/104 102/117/102 67/67/67 
f 67/67/67 64/64/64 104/120/104 
f 8/8/8 61/61/61 104/120/104 
f 104/120/104 93/103/93 8/8/8 
f 90/100/90 105/121/105 106/122/106 
f 13/13/13 105/121/105 107/123/107 
f 107/123/107 17/17/17 13/13/13 
f 105/121/105 13/13/13 16/16/16 
f 16/16/16 106/122/106 105/121/105 
f 89/99/89 107/123/107 105/121/105 
f 105/121/105 90/100/90 89/99/89 
f 89/124/89 46/125/46 108/126/108 
f 108/126/108 109/127/109 89/124/89 
f 107/128/107 89/124/89 109/127/109 
f 28/28/28 88/98/88 109/127/109 
f 109/127/109 108/126/108 28/28/28 
f 107/128/107 109/127/109 88/98/88 
f 88/98/88 17/97/17 107/128/107 
f 110/129/110 42/130/42 41/131/41 
f 41/131/41 111/132/111 110/129/110 
f 42/130/42 110/129/110 112/133/112 
f 112/133/112 45/134/45 42/130/42 
f 23/23/23 110/129/110 111/132/111 
f 111/132/111 24/24/24 23/23/23 
f 46/125/46 45/134/45 112/133/112 
f 112/133/112 108/126/108 46/125/46 
f 29/29/29 112/133/112 110/129/110 
f 110/129/110 23/23/23 29/29/29 
f 108/126/108 112/133/112 29/29/29 
f 29/29/29 28/28/28 108/126/108 
f 95/135/95 113/136/113 114/137/114 
f 95/135/95 114/137/114 111/132/111 
f 111/132/111 41/131/41 95/135/95 
f 114/137/114 96/106/96 24/24/24 
f 24/24/24 111/132/111 114/137/114 
f 96/106/96 114/137/114 113/136/113 
f 113/136/113 35/109/35 96/106/96 
f 115/138/115 113/139/113 95/105/95 
f 95/105/95 94/104/94 115/138/115 
f 35/35/35 113/139/113 115/138/115 
f 115/138/115 36/36/36 35/35/35 
f 94/104/94 116/140/116 115/138/115 
f 115/138/115 116/140/116 91/101/91 
f 91/101/91 36/36/36 115/138/115 
f 94/104/94 40/40/40 117/141/117 
f 117/141/117 116/140/116 94/104/94 
f 116/140/116 117/141/117 1/1/1 
f 1/1/1 91/101/91 116/140/116 
f 118/142/118 117/141/117 40/40/40 
f 40/40/40 43/43/43 118/142/118 
f 2/2/2 118/142/118 119/143/119 
f 119/143/119 5/5/5 2/2/2 
f 117/141/117 118/142/118 2/2/2 
f 2/2/2 1/1/1 117/141/117 
f 119/143/119 44/44/44 47/47/47 
f 47/47/47 120/144/120 119/143/119 
f 44/44/44 119/143/119 118/142/118 
f 118/142/118 43/43/43 44/44/44 
f 5/5/5 119/143/119 120/144/120 
f 120/144/120 9/9/9 5/5/5 
f 90/100/90 106/122/106 120/144/120 
f 120/144/120 47/47/47 90/100/90 
f 106/122/106 16/16/16 9/9/9 
f 9/9/9 120/144/120 106/122/106 
# 236 faces

