# 3ds Max Wavefront OBJ Exporter v0.97b - (c)2007 guruware
# File Created: 20.01.2013 04:22:23

#
# object default
#

v  3.3475 5.6007 1.5908
v  3.5133 5.5418 1.5908
v  3.5133 6.0890 1.5908
v  3.3475 6.0301 1.5908
v  3.1535 6.5082 1.5908
v  3.0653 6.3588 1.5908
v  2.6022 6.6032 1.5908
v  2.6330 6.4333 1.5908
v  2.1175 6.3296 1.5908
v  2.2526 6.2186 1.5908
v  1.9260 5.8154 1.5908
v  2.1026 5.8154 1.5908
v  2.1175 5.3012 1.5908
v  2.2526 5.4122 1.5908
v  2.6022 5.0277 1.5908
v  2.6330 5.1975 1.5908
v  3.1535 5.1226 1.5908
v  3.0653 5.2720 1.5908
v  3.2317 5.6420 1.1124
v  3.0037 5.3763 1.1124
v  2.6542 5.3160 1.1124
v  2.3470 5.4895 1.1124
v  2.2257 5.8154 1.1124
v  2.3470 6.1414 1.1124
v  2.6542 6.3148 1.1124
v  3.0037 6.2545 1.1124
v  3.2317 5.9889 1.1124
v  3.3658 5.5944 1.1124
v  3.3658 6.0364 1.1124
v  3.0750 6.3753 1.1124
v  2.6295 6.4520 1.1124
v  2.2379 6.2308 1.1124
v  2.0831 5.8154 1.1124
v  2.2379 5.4000 1.1124
v  2.6295 5.1788 1.1124
v  3.0750 5.2556 1.1124
v  2.9977 5.3864 0.9924
v  3.2207 5.6459 0.9924
v  2.6564 5.3275 0.9924
v  2.3561 5.4970 0.9924
v  2.2375 5.8154 0.9924
v  2.3561 6.1338 0.9924
v  2.6564 6.3033 0.9924
v  2.9977 6.2444 0.9924
v  3.2207 5.9849 0.9924
v  3.1179 5.9483 0.9924
v  3.1179 5.6825 0.9924
v  2.9431 6.1518 0.9924
v  2.6753 6.1980 0.9924
v  2.4399 6.0651 0.9924
v  2.3468 5.8154 0.9924
v  2.4399 5.5657 0.9924
v  2.6753 5.4328 0.9924
v  2.9431 5.4790 0.9924
v  3.0748 5.6978 0.3724
v  2.9202 5.5176 0.3724
v  2.6832 5.4768 0.3724
v  2.4749 5.5944 0.3724
v  2.3926 5.8154 0.3724
v  2.4749 6.0364 0.3724
v  2.6832 6.1541 0.3724
v  2.9202 6.1132 0.3724
v  3.0748 5.9330 0.3724
v  3.1657 5.6655 0.3724
v  3.1657 5.9653 0.3724
v  2.9685 6.1949 0.3724
v  2.6665 6.2470 0.3724
v  2.4009 6.0972 0.3724
v  2.2960 5.8154 0.3724
v  2.4009 5.5336 0.3724
v  2.6665 5.3838 0.3724
v  2.9685 5.4359 0.3724
v  3.0717 5.2612 0.2524
v  3.3596 5.5966 0.2524
v  2.6307 5.1851 0.2524
v  2.2430 5.4041 0.2524
v  2.0898 5.8154 0.2524
v  2.2430 6.2267 0.2524
v  2.6307 6.4457 0.2524
v  3.0717 6.3696 0.2524
v  3.3596 6.0342 0.2524
v  3.2270 5.9871 0.2524
v  3.2270 5.6437 0.2524
v  3.0010 6.2501 0.2524
v  2.6551 6.3097 0.2524
v  2.3510 6.1381 0.2524
v  2.2308 5.8154 0.2524
v  2.3510 5.4927 0.2524
v  2.6551 5.3212 0.2524
v  3.0010 5.3808 0.2524
v  3.2270 5.6437 -0.2276
v  3.0010 5.3808 -0.2276
v  2.6551 5.3212 -0.2276
v  2.3510 5.4927 -0.2276
v  2.2308 5.8154 -0.2276
v  2.3510 6.1381 -0.2276
v  2.6551 6.3097 -0.2276
v  3.0010 6.2501 -0.2276
v  3.2270 5.9871 -0.2276
v  3.3596 5.5966 -0.2276
v  3.3596 6.0342 -0.2276
v  3.0717 6.3696 -0.2276
v  2.6307 6.4457 -0.2276
v  2.2430 6.2267 -0.2276
v  2.0898 5.8154 -0.2276
v  2.2430 5.4041 -0.2276
v  2.6307 5.1851 -0.2276
v  3.0717 5.2612 -0.2276
v  2.9765 5.4225 -0.4101
v  3.1804 5.6603 -0.4101
v  2.6637 5.3687 -0.4101
v  2.3890 5.5238 -0.4101
v  2.2804 5.8154 -0.4101
v  2.3890 6.1070 -0.4101
v  2.6637 6.2621 -0.4101
v  2.9765 6.2083 -0.4101
v  3.1804 5.9705 -0.4101
v  3.0864 5.9372 -0.4101
v  3.0864 5.6937 -0.4101
v  2.9264 6.1235 -0.4101
v  2.6811 6.1657 -0.4101
v  2.4656 6.0442 -0.4101
v  2.3804 5.8154 -0.4101
v  2.4656 5.5867 -0.4101
v  2.6811 5.4651 -0.4101
v  2.9264 5.5073 -0.4101
v  3.2020 5.6526 -0.6707
v  2.9879 5.4032 -0.6707
v  2.6599 5.3466 -0.6707
v  2.3714 5.5094 -0.6707
v  2.2574 5.8154 -0.6707
v  2.3714 6.1214 -0.6707
v  2.6599 6.2842 -0.6707
v  2.9879 6.2276 -0.6707
v  3.2020 5.9782 -0.6707
v  3.3278 5.6078 -0.6707
v  3.3278 6.0230 -0.6707
v  3.0548 6.3409 -0.6707
v  2.6365 6.4130 -0.6707
v  2.2688 6.2054 -0.6707
v  2.1235 5.8154 -0.6707
v  2.2688 5.4254 -0.6707
v  2.6365 5.2178 -0.6707
v  3.0548 5.2899 -0.6707
# 144 vertices

vn -0.5207 0.1895 0.8325
vn 0.7740 -0.2817 0.5671
vn 0.7740 0.2817 0.5671
vn -0.5207 -0.1895 0.8325
vn 0.4118 0.7133 0.5671
vn -0.2771 -0.4799 0.8324
vn -0.1431 0.8111 0.5671
vn 0.0962 -0.5457 0.8324
vn -0.6310 0.5294 0.5671
vn 0.4245 -0.3561 0.8324
vn -0.8237 0.0000 0.5671
vn 0.5542 -0.0000 0.8324
vn -0.6309 -0.5295 0.5671
vn 0.4245 0.3561 0.8324
vn -0.1431 -0.8111 0.5671
vn 0.0962 0.5457 0.8324
vn 0.4118 -0.7133 0.5671
vn -0.2771 0.4799 0.8324
vn -0.8917 0.3245 0.3155
vn -0.4745 0.8218 0.3156
vn 0.1648 0.9345 0.3156
vn 0.7270 0.6098 0.3157
vn 0.9490 0.0001 0.3153
vn 0.7270 -0.6099 0.3156
vn 0.1648 -0.9345 0.3156
vn -0.4745 -0.8217 0.3156
vn -0.8917 -0.3246 0.3155
vn 0.8690 -0.3162 -0.3806
vn 0.8690 0.3162 -0.3805
vn 0.4623 0.8008 -0.3807
vn -0.1607 0.9106 -0.3807
vn -0.7084 0.5944 -0.3806
vn -0.9248 0.0000 -0.3806
vn -0.7084 -0.5944 -0.3805
vn -0.1608 -0.9107 -0.3806
vn 0.4624 -0.8008 -0.3807
vn 0.4669 -0.8087 -0.3579
vn 0.8774 -0.3196 -0.3577
vn -0.1621 -0.9196 -0.3579
vn -0.7154 -0.6002 -0.3576
vn -0.9338 -0.0000 -0.3577
vn -0.7154 0.6003 -0.3576
vn -0.1622 0.9196 -0.3578
vn 0.4667 0.8087 -0.3579
vn 0.8774 0.3195 -0.3578
vn -0.8984 -0.3271 0.2930
vn -0.8984 0.3271 0.2930
vn -0.4780 -0.8280 0.2931
vn 0.1660 -0.9415 0.2932
vn 0.7323 -0.6146 0.2933
vn 0.9561 0.0001 0.2929
vn 0.7324 0.6145 0.2931
vn 0.1660 0.9415 0.2932
vn -0.4780 0.8280 0.2932
vn -0.8885 0.3234 -0.3255
vn -0.4728 0.8189 -0.3252
vn 0.1643 0.9313 -0.3251
vn 0.7245 0.6077 -0.3252
vn 0.9456 0.0000 -0.3253
vn 0.7245 -0.6077 -0.3253
vn 0.1642 -0.9313 -0.3252
vn -0.4729 -0.8189 -0.3251
vn -0.8885 -0.3235 -0.3254
vn 0.8670 -0.3157 0.3855
vn 0.8670 0.3157 0.3855
vn 0.4613 0.7991 0.3855
vn -0.1600 0.9087 0.3856
vn -0.7068 0.5932 0.3854
vn -0.9228 0.0000 0.3853
vn -0.7068 -0.5933 0.3853
vn -0.1601 -0.9087 0.3855
vn 0.4613 -0.7991 0.3855
vn 0.4681 -0.8107 0.3516
vn 0.8797 -0.3202 0.3517
vn -0.1626 -0.9219 0.3517
vn -0.7172 -0.6017 0.3515
vn -0.9362 0.0000 0.3515
vn -0.7172 0.6017 0.3515
vn -0.1626 0.9219 0.3516
vn 0.4681 0.8107 0.3516
vn 0.8797 0.3202 0.3517
vn -0.8957 -0.3263 -0.3021
vn -0.8958 0.3262 -0.3020
vn -0.4765 -0.8257 -0.3019
vn 0.1655 -0.9389 -0.3018
vn 0.7303 -0.6129 -0.3019
vn 0.9533 0.0000 -0.3019
vn 0.7302 0.6129 -0.3019
vn 0.1656 0.9389 -0.3018
vn -0.4765 0.8258 -0.3018
vn -0.9192 0.3348 0.2071
vn -0.4889 0.8474 0.2071
vn 0.1699 0.9635 0.2071
vn 0.7494 0.6289 0.2071
vn 0.9783 0.0000 0.2071
vn 0.7494 -0.6289 0.2071
vn 0.1699 -0.9635 0.2071
vn -0.4889 -0.8474 0.2070
vn -0.9192 -0.3348 0.2071
vn 0.9095 -0.3310 -0.2513
vn 0.9095 0.3311 -0.2514
vn 0.4840 0.8382 -0.2512
vn -0.1682 0.9532 -0.2513
vn -0.7415 0.6221 -0.2513
vn -0.9679 -0.0000 -0.2513
vn -0.7415 -0.6221 -0.2513
vn -0.1681 -0.9532 -0.2514
vn 0.4840 -0.8383 -0.2512
vn 0.4967 -0.8604 -0.1139
vn 0.9336 -0.3396 -0.1139
vn -0.1727 -0.9784 -0.1139
vn -0.7611 -0.6386 -0.1138
vn -0.9935 0.0000 -0.1138
vn -0.7611 0.6386 -0.1138
vn -0.1728 0.9783 -0.1139
vn 0.4968 0.8604 -0.1138
vn 0.9337 0.3396 -0.1137
vn -0.9355 -0.3407 0.0941
vn -0.9354 0.3407 0.0941
vn -0.4976 -0.8623 0.0940
vn 0.1728 -0.9805 0.0940
vn 0.7625 -0.6401 0.0941
vn 0.9956 0.0000 0.0941
vn 0.7625 0.6401 0.0941
vn 0.1728 0.9805 0.0940
vn -0.4976 0.8623 0.0941
vn -0.4784 0.1742 -0.8607
vn -0.2546 0.4410 -0.8606
vn 0.0882 0.5013 -0.8608
vn 0.3900 0.3273 -0.8607
vn 0.5091 0.0000 -0.8607
vn 0.3900 -0.3273 -0.8607
vn 0.0883 -0.5013 -0.8607
vn -0.2547 -0.4410 -0.8606
vn -0.4784 -0.1742 -0.8607
vn 0.8082 -0.2943 -0.5101
vn 0.8082 0.2942 -0.5101
vn 0.4299 0.7449 -0.5103
vn -0.1494 0.8470 -0.5101
vn -0.6589 0.5528 -0.5102
vn -0.8601 0.0000 -0.5101
vn -0.6589 -0.5528 -0.5102
vn -0.1495 -0.8470 -0.5102
vn 0.4300 -0.7448 -0.5103
# 144 vertex normals

vt 0.6801 0.8798 0.0000
vt 0.6798 0.8691 0.0000
vt 0.7078 0.8700 0.0000
vt 0.7073 0.8792 0.0000
vt 0.7354 0.8711 0.0000
vt 0.7353 0.8825 0.0000
vt 0.7633 0.8700 0.0000
vt 0.7637 0.8798 0.0000
vt 0.7891 0.8692 0.0000
vt 0.7892 0.8778 0.0000
vt 0.8154 0.8695 0.0000
vt 0.8151 0.8795 0.0000
vt 0.8450 0.8710 0.0000
vt 0.8436 0.8824 0.0000
vt 0.8831 0.8766 0.0000
vt 0.8759 0.8895 0.0000
vt 0.6106 0.8779 0.0000
vt 0.6484 0.8714 0.0000
vt 0.6500 0.8835 0.0000
vt 0.6173 0.8895 0.0000
vt 0.6520 0.4722 0.0000
vt 0.6785 0.4640 0.0000
vt 0.6867 0.4984 0.0000
vt 0.6639 0.5045 0.0000
vt 0.6272 0.4838 0.0000
vt 0.6437 0.5132 0.0000
vt 0.8461 0.4662 0.0000
vt 0.8750 0.4774 0.0000
vt 0.8585 0.5118 0.0000
vt 0.8343 0.5020 0.0000
vt 0.8167 0.4594 0.0000
vt 0.8097 0.4962 0.0000
vt 0.7880 0.4565 0.0000
vt 0.7846 0.4932 0.0000
vt 0.7605 0.4560 0.0000
vt 0.7600 0.4923 0.0000
vt 0.7337 0.4567 0.0000
vt 0.7356 0.4926 0.0000
vt 0.7063 0.4592 0.0000
vt 0.7111 0.4946 0.0000
vt 0.6799 0.8385 0.0000
vt 0.7078 0.8391 0.0000
vt 0.7360 0.8397 0.0000
vt 0.7635 0.8396 0.0000
vt 0.7900 0.8396 0.0000
vt 0.8178 0.8395 0.0000
vt 0.8467 0.8392 0.0000
vt 0.8777 0.8355 0.0000
vt 0.6148 0.8319 0.0000
vt 0.6501 0.8373 0.0000
vt 0.6514 0.8214 0.0000
vt 0.6799 0.8238 0.0000
vt 0.6224 0.8158 0.0000
vt 0.8458 0.8252 0.0000
vt 0.8718 0.8214 0.0000
vt 0.8177 0.8241 0.0000
vt 0.7902 0.8256 0.0000
vt 0.7634 0.8268 0.0000
vt 0.7331 0.8192 0.0000
vt 0.7077 0.8246 0.0000
vt 0.7124 0.5085 0.0000
vt 0.6894 0.5125 0.0000
vt 0.7360 0.5065 0.0000
vt 0.7599 0.5054 0.0000
vt 0.7839 0.5073 0.0000
vt 0.8077 0.5102 0.0000
vt 0.8303 0.5155 0.0000
vt 0.8507 0.5230 0.0000
vt 0.6679 0.5161 0.0000
vt 0.6499 0.5220 0.0000
vt 0.6949 0.5729 0.0000
vt 0.6747 0.5715 0.0000
vt 0.6560 0.5695 0.0000
vt 0.8416 0.5712 0.0000
vt 0.8240 0.5722 0.0000
vt 0.8037 0.5709 0.0000
vt 0.7823 0.5719 0.0000
vt 0.7605 0.5732 0.0000
vt 0.7386 0.5717 0.0000
vt 0.7163 0.5705 0.0000
vt 0.6823 0.7644 0.0000
vt 0.7121 0.7687 0.0000
vt 0.7330 0.7704 0.0000
vt 0.7620 0.7654 0.0000
vt 0.7888 0.7657 0.0000
vt 0.8157 0.7649 0.0000
vt 0.8428 0.7655 0.0000
vt 0.8696 0.7682 0.0000
vt 0.6307 0.7625 0.0000
vt 0.6551 0.7608 0.0000
vt 0.6549 0.7436 0.0000
vt 0.6831 0.7444 0.0000
vt 0.6241 0.7446 0.0000
vt 0.8428 0.7456 0.0000
vt 0.8778 0.7475 0.0000
vt 0.8144 0.7465 0.0000
vt 0.7874 0.7473 0.0000
vt 0.7611 0.7473 0.0000
vt 0.7351 0.7470 0.0000
vt 0.7098 0.7465 0.0000
vt 0.7163 0.5882 0.0000
vt 0.6948 0.5872 0.0000
vt 0.7389 0.5882 0.0000
vt 0.7605 0.5880 0.0000
vt 0.7820 0.5881 0.0000
vt 0.8041 0.5878 0.0000
vt 0.8255 0.5864 0.0000
vt 0.8466 0.5830 0.0000
vt 0.6739 0.5869 0.0000
vt 0.6502 0.5839 0.0000
vt 0.6934 0.6188 0.0000
vt 0.6714 0.6181 0.0000
vt 0.6494 0.6186 0.0000
vt 0.8506 0.6175 0.0000
vt 0.8265 0.6182 0.0000
vt 0.8042 0.6200 0.0000
vt 0.7818 0.6208 0.0000
vt 0.7594 0.6211 0.0000
vt 0.7371 0.6210 0.0000
vt 0.7152 0.6207 0.0000
vt 0.6858 0.7136 0.0000
vt 0.7117 0.7158 0.0000
vt 0.7373 0.7170 0.0000
vt 0.7626 0.7166 0.0000
vt 0.7879 0.7166 0.0000
vt 0.8144 0.7153 0.0000
vt 0.8419 0.7119 0.0000
vt 0.8732 0.7046 0.0000
vt 0.6270 0.7040 0.0000
vt 0.6585 0.7113 0.0000
vt 0.6616 0.6911 0.0000
vt 0.6868 0.6944 0.0000
vt 0.6376 0.6851 0.0000
vt 0.8383 0.6913 0.0000
vt 0.8620 0.6847 0.0000
vt 0.8132 0.6966 0.0000
vt 0.7879 0.6979 0.0000
vt 0.7625 0.6988 0.0000
vt 0.7372 0.6990 0.0000
vt 0.7122 0.6961 0.0000
vt 0.7145 0.6390 0.0000
vt 0.6923 0.6387 0.0000
vt 0.7375 0.6406 0.0000
vt 0.7615 0.6423 0.0000
vt 0.7834 0.6407 0.0000
vt 0.8066 0.6400 0.0000
vt 0.8280 0.6373 0.0000
vt 0.8474 0.6357 0.0000
vt 0.6714 0.6357 0.0000
vt 0.6524 0.6338 0.0000
vt 0.6907 0.6631 0.0000
vt 0.6672 0.6600 0.0000
vt 0.6449 0.6538 0.0000
vt 0.8543 0.6547 0.0000
vt 0.8326 0.6618 0.0000
vt 0.8096 0.6645 0.0000
vt 0.7848 0.6650 0.0000
vt 0.7621 0.6685 0.0000
vt 0.7382 0.6664 0.0000
vt 0.7145 0.6668 0.0000
vt 0.6895 0.6726 0.0000
vt 0.7139 0.6747 0.0000
vt 0.7379 0.6758 0.0000
vt 0.7621 0.6765 0.0000
vt 0.7865 0.6757 0.0000
vt 0.8107 0.6728 0.0000
vt 0.8343 0.6694 0.0000
vt 0.8602 0.6628 0.0000
vt 0.6395 0.6608 0.0000
vt 0.6653 0.6678 0.0000
# 170 texture coords

g default
s 1
f 1/1/1 2/2/2 3/3/3 
f 1/1/1 3/3/3 4/4/4 
f 3/3/3 5/5/5 6/6/6 
f 3/3/3 6/6/6 4/4/4 
f 5/5/5 7/7/7 8/8/8 
f 5/5/5 8/8/8 6/6/6 
f 7/7/7 9/9/9 10/10/10 
f 7/7/7 10/10/10 8/8/8 
f 9/9/9 11/11/11 12/12/12 
f 9/9/9 12/12/12 10/10/10 
f 11/11/11 13/13/13 14/14/14 
f 11/11/11 14/14/14 12/12/12 
f 13/13/13 15/15/15 16/16/16 
f 13/13/13 16/16/16 14/14/14 
f 15/17/15 17/18/17 18/19/18 
f 15/17/15 18/19/18 16/20/16 
f 17/18/17 2/2/2 1/1/1 
f 17/18/17 1/1/1 18/19/18 
f 18/21/18 1/22/1 19/23/19 
f 18/21/18 19/23/19 20/24/20 
f 16/25/16 18/21/18 20/24/20 
f 16/25/16 20/24/20 21/26/21 
f 14/27/14 16/28/16 21/29/21 
f 14/27/14 21/29/21 22/30/22 
f 12/31/12 14/27/14 22/30/22 
f 12/31/12 22/30/22 23/32/23 
f 10/33/10 12/31/12 23/32/23 
f 10/33/10 23/32/23 24/34/24 
f 8/35/8 10/33/10 24/34/24 
f 8/35/8 24/34/24 25/36/25 
f 6/37/6 8/35/8 25/36/25 
f 6/37/6 25/36/25 26/38/26 
f 4/39/4 6/37/6 26/38/26 
f 4/39/4 26/38/26 27/40/27 
f 4/39/4 27/40/27 19/23/19 
f 4/39/4 19/23/19 1/22/1 
f 2/2/2 28/41/28 29/42/29 
f 2/2/2 29/42/29 3/3/3 
f 5/5/5 3/3/3 29/42/29 
f 5/5/5 29/42/29 30/43/30 
f 7/7/7 5/5/5 30/43/30 
f 7/7/7 30/43/30 31/44/31 
f 9/9/9 7/7/7 31/44/31 
f 9/9/9 31/44/31 32/45/32 
f 11/11/11 9/9/9 32/45/32 
f 11/11/11 32/45/32 33/46/33 
f 13/13/13 11/11/11 33/46/33 
f 13/13/13 33/46/33 34/47/34 
f 15/15/15 13/13/13 34/47/34 
f 15/15/15 34/47/34 35/48/35 
f 17/18/17 15/17/15 35/49/35 
f 17/18/17 35/49/35 36/50/36 
f 2/2/2 17/18/17 36/50/36 
f 2/2/2 36/50/36 28/41/28 
f 28/41/28 36/50/36 37/51/37 
f 28/41/28 37/51/37 38/52/38 
f 36/50/36 35/49/35 39/53/39 
f 36/50/36 39/53/39 37/51/37 
f 35/48/35 34/47/34 40/54/40 
f 35/48/35 40/54/40 39/55/39 
f 34/47/34 33/46/33 41/56/41 
f 34/47/34 41/56/41 40/54/40 
f 33/46/33 32/45/32 42/57/42 
f 33/46/33 42/57/42 41/56/41 
f 32/45/32 31/44/31 43/58/43 
f 32/45/32 43/58/43 42/57/42 
f 31/44/31 30/43/30 44/59/44 
f 31/44/31 44/59/44 43/58/43 
f 30/43/30 29/42/29 45/60/45 
f 30/43/30 45/60/45 44/59/44 
f 28/41/28 38/52/38 45/60/45 
f 28/41/28 45/60/45 29/42/29 
f 27/40/27 46/61/46 47/62/47 
f 27/40/27 47/62/47 19/23/19 
f 27/40/27 26/38/26 48/63/48 
f 27/40/27 48/63/48 46/61/46 
f 26/38/26 25/36/25 49/64/49 
f 26/38/26 49/64/49 48/63/48 
f 25/36/25 24/34/24 50/65/50 
f 25/36/25 50/65/50 49/64/49 
f 24/34/24 23/32/23 51/66/51 
f 24/34/24 51/66/51 50/65/50 
f 23/32/23 22/30/22 52/67/52 
f 23/32/23 52/67/52 51/66/51 
f 22/30/22 21/29/21 53/68/53 
f 22/30/22 53/68/53 52/67/52 
f 21/26/21 20/24/20 54/69/54 
f 21/26/21 54/69/54 53/70/53 
f 20/24/20 19/23/19 47/62/47 
f 20/24/20 47/62/47 54/69/54 
f 54/69/54 47/62/47 55/71/55 
f 54/69/54 55/71/55 56/72/56 
f 53/70/53 54/69/54 56/72/56 
f 53/70/53 56/72/56 57/73/57 
f 52/67/52 53/68/53 57/74/57 
f 52/67/52 57/74/57 58/75/58 
f 51/66/51 52/67/52 58/75/58 
f 51/66/51 58/75/58 59/76/59 
f 50/65/50 51/66/51 59/76/59 
f 50/65/50 59/76/59 60/77/60 
f 49/64/49 50/65/50 60/77/60 
f 49/64/49 60/77/60 61/78/61 
f 48/63/48 49/64/49 61/78/61 
f 48/63/48 61/78/61 62/79/62 
f 46/61/46 48/63/48 62/79/62 
f 46/61/46 62/79/62 63/80/63 
f 46/61/46 63/80/63 55/71/55 
f 46/61/46 55/71/55 47/62/47 
f 38/52/38 64/81/64 65/82/65 
f 38/52/38 65/82/65 45/60/45 
f 44/59/44 45/60/45 65/82/65 
f 44/59/44 65/82/65 66/83/66 
f 43/58/43 44/59/44 66/83/66 
f 43/58/43 66/83/66 67/84/67 
f 42/57/42 43/58/43 67/84/67 
f 42/57/42 67/84/67 68/85/68 
f 41/56/41 42/57/42 68/85/68 
f 41/56/41 68/85/68 69/86/69 
f 40/54/40 41/56/41 69/86/69 
f 40/54/40 69/86/69 70/87/70 
f 39/55/39 40/54/40 70/87/70 
f 39/55/39 70/87/70 71/88/71 
f 37/51/37 39/53/39 71/89/71 
f 37/51/37 71/89/71 72/90/72 
f 38/52/38 37/51/37 72/90/72 
f 38/52/38 72/90/72 64/81/64 
f 64/81/64 72/90/72 73/91/73 
f 64/81/64 73/91/73 74/92/74 
f 72/90/72 71/89/71 75/93/75 
f 72/90/72 75/93/75 73/91/73 
f 71/88/71 70/87/70 76/94/76 
f 71/88/71 76/94/76 75/95/75 
f 70/87/70 69/86/69 77/96/77 
f 70/87/70 77/96/77 76/94/76 
f 69/86/69 68/85/68 78/97/78 
f 69/86/69 78/97/78 77/96/77 
f 68/85/68 67/84/67 79/98/79 
f 68/85/68 79/98/79 78/97/78 
f 67/84/67 66/83/66 80/99/80 
f 67/84/67 80/99/80 79/98/79 
f 66/83/66 65/82/65 81/100/81 
f 66/83/66 81/100/81 80/99/80 
f 64/81/64 74/92/74 81/100/81 
f 64/81/64 81/100/81 65/82/65 
f 63/80/63 82/101/82 83/102/83 
f 63/80/63 83/102/83 55/71/55 
f 63/80/63 62/79/62 84/103/84 
f 63/80/63 84/103/84 82/101/82 
f 62/79/62 61/78/61 85/104/85 
f 62/79/62 85/104/85 84/103/84 
f 61/78/61 60/77/60 86/105/86 
f 61/78/61 86/105/86 85/104/85 
f 60/77/60 59/76/59 87/106/87 
f 60/77/60 87/106/87 86/105/86 
f 59/76/59 58/75/58 88/107/88 
f 59/76/59 88/107/88 87/106/87 
f 58/75/58 57/74/57 89/108/89 
f 58/75/58 89/108/89 88/107/88 
f 57/73/57 56/72/56 90/109/90 
f 57/73/57 90/109/90 89/110/89 
f 56/72/56 55/71/55 83/102/83 
f 56/72/56 83/102/83 90/109/90 
f 90/109/90 83/102/83 91/111/91 
f 90/109/90 91/111/91 92/112/92 
f 89/110/89 90/109/90 92/112/92 
f 89/110/89 92/112/92 93/113/93 
f 88/107/88 89/108/89 93/114/93 
f 88/107/88 93/114/93 94/115/94 
f 87/106/87 88/107/88 94/115/94 
f 87/106/87 94/115/94 95/116/95 
f 86/105/86 87/106/87 95/116/95 
f 86/105/86 95/116/95 96/117/96 
f 85/104/85 86/105/86 96/117/96 
f 85/104/85 96/117/96 97/118/97 
f 84/103/84 85/104/85 97/118/97 
f 84/103/84 97/118/97 98/119/98 
f 82/101/82 84/103/84 98/119/98 
f 82/101/82 98/119/98 99/120/99 
f 82/101/82 99/120/99 91/111/91 
f 82/101/82 91/111/91 83/102/83 
f 74/92/74 100/121/100 101/122/101 
f 74/92/74 101/122/101 81/100/81 
f 80/99/80 81/100/81 101/122/101 
f 80/99/80 101/122/101 102/123/102 
f 79/98/79 80/99/80 102/123/102 
f 79/98/79 102/123/102 103/124/103 
f 78/97/78 79/98/79 103/124/103 
f 78/97/78 103/124/103 104/125/104 
f 77/96/77 78/97/78 104/125/104 
f 77/96/77 104/125/104 105/126/105 
f 76/94/76 77/96/77 105/126/105 
f 76/94/76 105/126/105 106/127/106 
f 75/95/75 76/94/76 106/127/106 
f 75/95/75 106/127/106 107/128/107 
f 73/91/73 75/93/75 107/129/107 
f 73/91/73 107/129/107 108/130/108 
f 74/92/74 73/91/73 108/130/108 
f 74/92/74 108/130/108 100/121/100 
f 100/121/100 108/130/108 109/131/109 
f 100/121/100 109/131/109 110/132/110 
f 108/130/108 107/129/107 111/133/111 
f 108/130/108 111/133/111 109/131/109 
f 107/128/107 106/127/106 112/134/112 
f 107/128/107 112/134/112 111/135/111 
f 106/127/106 105/126/105 113/136/113 
f 106/127/106 113/136/113 112/134/112 
f 105/126/105 104/125/104 114/137/114 
f 105/126/105 114/137/114 113/136/113 
f 104/125/104 103/124/103 115/138/115 
f 104/125/104 115/138/115 114/137/114 
f 103/124/103 102/123/102 116/139/116 
f 103/124/103 116/139/116 115/138/115 
f 102/123/102 101/122/101 117/140/117 
f 102/123/102 117/140/117 116/139/116 
f 100/121/100 110/132/110 117/140/117 
f 100/121/100 117/140/117 101/122/101 
f 99/120/99 118/141/118 119/142/119 
f 99/120/99 119/142/119 91/111/91 
f 99/120/99 98/119/98 120/143/120 
f 99/120/99 120/143/120 118/141/118 
f 98/119/98 97/118/97 121/144/121 
f 98/119/98 121/144/121 120/143/120 
f 97/118/97 96/117/96 122/145/122 
f 97/118/97 122/145/122 121/144/121 
f 96/117/96 95/116/95 123/146/123 
f 96/117/96 123/146/123 122/145/122 
f 95/116/95 94/115/94 124/147/124 
f 95/116/95 124/147/124 123/146/123 
f 94/115/94 93/114/93 125/148/125 
f 94/115/94 125/148/125 124/147/124 
f 93/113/93 92/112/92 126/149/126 
f 93/113/93 126/149/126 125/150/125 
f 92/112/92 91/111/91 119/142/119 
f 92/112/92 119/142/119 126/149/126 
f 126/149/126 119/142/119 127/151/127 
f 126/149/126 127/151/127 128/152/128 
f 125/150/125 126/149/126 128/152/128 
f 125/150/125 128/152/128 129/153/129 
f 124/147/124 125/148/125 129/154/129 
f 124/147/124 129/154/129 130/155/130 
f 123/146/123 124/147/124 130/155/130 
f 123/146/123 130/155/130 131/156/131 
f 122/145/122 123/146/123 131/156/131 
f 122/145/122 131/156/131 132/157/132 
f 121/144/121 122/145/122 132/157/132 
f 121/144/121 132/157/132 133/158/133 
f 120/143/120 121/144/121 133/158/133 
f 120/143/120 133/158/133 134/159/134 
f 118/141/118 120/143/120 134/159/134 
f 118/141/118 134/159/134 135/160/135 
f 119/142/119 118/141/118 135/160/135 
f 119/142/119 135/160/135 127/151/127 
f 117/140/117 110/132/110 136/161/136 
f 117/140/117 136/161/136 137/162/137 
f 116/139/116 117/140/117 137/162/137 
f 116/139/116 137/162/137 138/163/138 
f 115/138/115 116/139/116 138/163/138 
f 115/138/115 138/163/138 139/164/139 
f 114/137/114 115/138/115 139/164/139 
f 114/137/114 139/164/139 140/165/140 
f 113/136/113 114/137/114 140/165/140 
f 113/136/113 140/165/140 141/166/141 
f 112/134/112 113/136/113 141/166/141 
f 112/134/112 141/166/141 142/167/142 
f 111/135/111 112/134/112 142/167/142 
f 111/135/111 142/167/142 143/168/143 
f 109/131/109 111/133/111 143/169/143 
f 109/131/109 143/169/143 144/170/144 
f 110/132/110 109/131/109 144/170/144 
f 110/132/110 144/170/144 136/161/136 
f 137/162/137 136/161/136 127/151/127 
f 137/162/137 127/151/127 135/160/135 
f 137/162/137 135/160/135 134/159/134 
f 137/162/137 134/159/134 138/163/138 
f 138/163/138 134/159/134 133/158/133 
f 138/163/138 133/158/133 139/164/139 
f 139/164/139 133/158/133 132/157/132 
f 139/164/139 132/157/132 140/165/140 
f 140/165/140 132/157/132 131/156/131 
f 140/165/140 131/156/131 141/166/141 
f 141/166/141 131/156/131 130/155/130 
f 141/166/141 130/155/130 142/167/142 
f 142/167/142 130/155/130 129/154/129 
f 142/167/142 129/154/129 143/168/143 
f 143/169/143 129/153/129 128/152/128 
f 143/169/143 128/152/128 144/170/144 
f 144/170/144 128/152/128 127/151/127 
f 144/170/144 127/151/127 136/161/136 
# 288 faces

